<svg xmlns="http://www.w3.org/2000/svg" viewBox="0 0 951.61 992.96"><defs><style>.cls-1{fill:#fff;}</style></defs><g id="Layer_2" data-name="Layer 2"><g id="Layer_1-2" data-name="Layer 1"><path class="cls-1" d="M456,18c5.59-5.55,10-12.1,15.23-18,11.51,15.92,27.78,27.66,45,36.77s35.51,16.38,53,25c19.87,10.34,38.11,26.2,46.22,47.57,3.65,10,5,20.69,8.32,30.83,17.5,6.39,36.6,9.81,51.89,21.1,8.24,6.69,17,13.35,22.42,22.66,11.56,18.67,14.24,41.19,14.58,62.72,10.91,4.73,22.57,7.46,33.49,12.2,12.17,5.42,23.94,12.08,33.9,21a149.92,149.92,0,0,1,18.37,19.58c4.15,5.42,8.28,11,10.77,17.39,11.85,27.48,12.55,58.23,9.92,87.61a5.64,5.64,0,0,1-5.17,5.18,52.67,52.67,0,0,1-12.48-.43c-20.91-2.91-42,.29-62.62,4-34,5.61-64.48,23.08-93,41.51-23.53,15.53-47.32,30.66-71,46-3.47,2.15-6.77,5-10.94,5.58-4.4.47-8.8-.69-12.88-2.25-8.61-3.38-17-7.32-25.62-10.63-10-3.91-20-7.92-29.09-13.6,7.81-6.84,17.27-11.31,26.28-16.3,29.24-16.64,57.83-34.42,85.44-53.62,44.34-29.49,95.27-50.57,148.66-55-1.88-17.38-12.87-32.79-27.23-42.3-13.87-9.49-30.9-13.23-47.5-13.47-20.4-.38-40.32,4.69-60,9.26,5.67-9.93,13.62-18.34,19.21-28.31,6.68-12.93,10.59-27.49,10.2-42.09-.47-12.7-5.12-25.94-15.15-34.22-9.77-8-22.83-10.55-35.17-10.38-9.14.29-18.36,1.42-27,4.5-10.75,3.71-20.66,9.38-30.74,14.55,5.91-16,15.58-30.58,18.75-47.5,2.11-14,1-29.13-6.66-41.37-4.29-7.26-10.94-12.82-18.35-16.7-18.25-11-40-14-61-13.92-14.43.35-29.1,0-43.18,3.65-17,4.24-33.14,13.19-44.2,26.93-6.6,8.2-8.12,19.2-7.8,29.41.41,8.05.59,16.29,3.25,24C388,188.3,394.85,198.44,398.26,210,378,203.62,359,190.46,337,192.23c-12.76,1.93-26.22,6-35.2,15.78-7.22,8.87-9,20.82-9.36,31.92a105.3,105.3,0,0,0,3.94,28.72c4.76,14.9,17.49,25.24,24.09,39.17-23-5.74-46.75-10.79-70.55-8a96.09,96.09,0,0,0-30.78,9.27c-10.29,5.13-18.2,13.91-24.42,23.41-4.61,6.39-8.7,14-7.39,22.14,33.53,4,66.8,12.16,97.48,26.51a411.23,411.23,0,0,1,41.31,23c30.59,19.78,58.27,43.92,90.23,61.61,46.2,27.14,92.87,54.35,143.61,72.2,5.42,2.19,11-.21,16.18-2,81.47-27.06,162.81-54.55,244.36-81.37,10.22-3.4,20.21-8.46,31.21-8.55,27.33,29.56,52.4,61.09,78.71,91.54,5.86,6.83,12,13.43,17.66,20.41a17,17,0,0,1,3.55,8.81C828.86,608.55,705.8,649.36,583.12,691.28c-6.25,1.93-12.52,4.5-19.15,4.52-8.18-.69-15.53-4.74-23.05-7.68-134.46-57.53-269.59-113.44-404-171-5.53-2-10.94-5-17-5.1-2.6-.07-4.69,1.72-6.35,3.51-6.51,7.35-15.46,13.4-18,23.46,97.4,42.45,195.51,83.25,293,125.43a29.09,29.09,0,0,1,8.71,6c-20,7.15-40,14.14-60.24,20.45-4.27,1.3-8.55,3.07-13.1,2.86-7.29-.24-14.09-3.18-20.7-6-41-17.88-82.16-35.26-123.32-52.69-36.31-15.25-72.39-31-108.68-46.29-23.95-10-48-19.73-71.32-31.1A116.73,116.73,0,0,1,12.32,541.3c28.55-32,54.94-66,83.84-97.72,12.26,2.66,23.32,8.81,34.9,13.39,141.4,58.87,283,117.21,424.1,176.84,10.75,4.51,22.13-.64,32.27-4.38,77.26-26.08,154.41-52.54,231.83-78.14a293.93,293.93,0,0,0,28.44-11c-5.24-9.5-11.16-19.83-21.54-24.43-6-2.61-12.42-.27-18.1,2q-118.8,39.9-237.77,79.34c-8.7,2.92-17.1-2.21-24.85-5.55-19.33-9-39.1-17-58.8-25.21C473,561,460.16,553.63,447.06,547c-33.77-17.85-67-36.84-98.62-58.3-13.24-9.12-26.67-18-40-26.93-23.8-15.84-48.37-31-75.26-41-20.27-8-42.2-9.63-63.6-12.53-14.77-1.94-29.31,2.43-44,3.18-5.65-27.68-5.74-57.15,4-84,4.54-12.75,12-24.2,20.16-34.89,9.87-12.39,23.08-21.66,37.1-28.8,13.36-6.77,27.49-11.9,41.72-16.51,3.78-16.78,3-34.51,9.19-50.74,5.6-13.58,16.51-24,27.22-33.62,15.91-13.15,37-16,55.9-22.68,2-11.87,1.74-24.68,8.1-35.33C339.34,88.44,352.65,73.16,370,64,393.89,51.7,419,41.86,442,28c4.89-3,9.94-5.91,14-10M766.3,724.14c4.46-2.11,8.71,2,11.5,5.07,4.59,5.63,9.7,11.52,11.09,18.87-.24,6.67-4.54,12.24-8.15,17.55-4.06,5.3-7.93,11.14-13.77,14.63-1.79.88-3.16-.91-4.44-1.83-6-5.26-12.2-10.29-17.86-15.9-2.56-2.68-.69-6.53.72-9.28,4.25-8.09,9.58-15.55,15-22.86,1.76-2.26,3.48-4.65,5.89-6.25m-271,3.88c.85-1.27,2.36-1.69,3.72-2.16,1,4.42-.9,8.67-2.38,12.73a158.32,158.32,0,0,1-7.85,17.3c-3.78,6-8.89,10.94-13.65,16.12-24.61,25.75-50.71,50-76.58,74.49q-19.65,18.4-39.42,36.69c6.92-.61,14.13-.45,20.65,2.2,28.24,12.32,58.84,18.13,89.36,21.23,31.35,3,63,4.67,94.41,1.59,52.84-5,105.33-18.5,152.49-43.23,23.07-12.19,44.7-27.34,63.22-45.78,8-8.16,14.51-17.56,21.58-26.49a14.21,14.21,0,0,0,2.25-3.65c1.83-8.17.75-17.3,5.38-24.65,3.44-5.76,8-10.73,11.57-16.4,2.2-3.16,3.81-7.18,7.73-8.59-.54,11.66-3.05,23.11-4.88,34.61-2.12,12.2-11,21.35-17.39,31.41A338,338,0,0,1,705.24,898.2C668,920,626.46,933.86,584.09,941.53c-33.9,6.45-68.52,9.63-103,7.83-30.85-1.48-62-7.24-89.9-20.85-3.91,15.36-9.19,30.56-17.65,44.06-5.32,8.11-12.45,15.7-21.83,18.94-8.87,3-20,1.52-26.19-6-7.77-9.28-9.17-21.94-9.58-33.59-.26-15.73,1.69-31.38,3.3-47q2.88-25.15,7.34-50.07c2-14.91,8.93-28.47,14-42.48.75-1.42,1.44-4.92,3.73-3.45a26.17,26.17,0,0,1,.06,6c-2.07,23.86-5.61,47.56-8.31,71.35,24.63-22.81,48.48-46.44,72.58-69.8C434,791.61,459.53,766.82,484,741c3.88-4.21,7.73-8.46,11.29-13M348.44,920.62c-6,2-12.54,5.48-14.84,11.84-1.82,6.4,2.13,13,7.53,16.34,4.09,2.71,9.13,3.33,13.94,3.24,6.64-.15,13.41-2.1,18.62-6.33s6.09-12.89,1.64-18c-6.48-7.46-17.6-9.86-26.89-7.11M467.09,739.07c3.13-2.91,6.06-6.08,9.68-8.41a37.53,37.53,0,0,1-8.91,17.13,484.79,484.79,0,0,1-44.72,42,26.79,26.79,0,0,1,7.23-14.36c11.64-12.7,24.23-24.49,36.72-36.34m-247.76-1c4-2,8.28.89,11.23,3.53,5.36,5,10.83,10.4,13.53,17.33,1,6.37-2.59,12.33-5.34,17.84-3.84,6.46-7.4,13.59-13.71,18-6.84-3.87-13-8.77-19.56-13.13-2.22-1.75-5.5-3.42-5.51-6.65,2.14-8.67,6.65-16.51,10.81-24.33,2.58-4.35,4.73-9.17,8.55-12.6m352.95,31.09c1.2-1.07,2.84.18,4.06.67a24,24,0,0,1,11.56,18.09c-.34,8.77-6.39,15.8-11.56,22.38-1.77,1.86-3.84,5.05-6.82,4.16-3.78-2.48-6.17-6.47-9.34-9.61-2.2-2.51-5.12-4.6-6.35-7.8.6-3,2.68-5.48,4.18-8.11,4.37-6.84,8.3-14.19,14.27-19.78M111.09,780c.41-1.51,1.78-2.06,3.19-2.24.57,5.41-.41,10.79-1,16.16-4.2,35.77-11,71.24-13.71,107.18-.23,9.66,1.28,20.07,7.48,27.85,6.51,8.23,17.8,11.43,27.93,10.15,9-1.44,15.74-8.07,22.07-14.06,3.2-2.79,6.46-6.18,10.86-6.81,4,1.13,7.58,4.9,12,3.34,7-2.17,8.72-10.78,15.08-13.94,3.18.34,6.55,3.22,9.64,1.13,6-4.12,7.43-12.54,14.2-15.83,2.13,2.23,4.61,5.3,8.12,4.36,6.26-1.51,8.73-10.18,4.93-15.15-2-2.61-3.91-5.63-6.9-7.1-4.36-.39-8.59,2.11-13,1.15-4.78-.87-10.24-3.39-11.55-8.51-1.13-4.7.91-9.37,2.61-13.66a173.54,173.54,0,0,1,18.1-31.92c1.91-2.45,3.86-5.13,6.75-6.48,5.24-.44,10.2,2.06,14.25,5.17a37.35,37.35,0,0,1,14.06,24.06c1.44,9.32,0,18.87-2.88,27.79a108,108,0,0,1-23.84,41.85c-5.53,5-13.26,6.39-19.07,11-2.66,1.95-4.83,4.54-7.65,6.28-3.23,1.52-7.09,1-10.21,2.92-5.74,3.38-10.12,8.67-16,11.87s-12.77-1.91-18.54,1.51c-8.53,5.46-13.49,14.61-19.41,22.52-5,6.5-11.53,12.2-19.53,14.51-9.64,2.77-21,.29-27.81-7.25C83.6,969.51,80.49,958,79.76,947c-1.23-9.66-.06-19.36.72-29,2.86-32.61,8.24-64.93,14.63-97,1-4.85,3.17-9.36,4.92-14,3.58-9,7.12-18.11,11.06-27m470.1,31.13c1.39-1.53,3.48-3.91,5.67-2.22,6.58,3.75,11.82,10.46,12.78,18.1.2,6-3.43,11.16-7,15.63-3.43,4.25-7.3,8.31-12.33,10.65-6.1-4-9.28-10.86-14.27-16-5.42,6.46-9.4,15.05-17.89,18-5.78-4.32-10.65-9.7-15.21-15.24-1.62-1.61-.29-3.91.7-5.46,5.86-8.51,11.39-17.36,18.77-24.68,7.48,3.1,12.34,10.25,16.07,17.13,4.08-5.44,8.26-10.81,12.7-16m231.14-1.83c2.08-.47,4.33,1.54,3.62,3.71-2.62,25.24-2.7,50.65-3.37,76-.59,13.62-1.92,27.37-6.06,40.43-3.79,10.48-7.22,21.72-15.24,29.85-1.76,2.25-6.52,1.07-5.77-2.15,1.83-11.33,4.86-22.5,5.31-34,1.86-24.62-2.65-49.8,3.56-74,3.15-12.19,8.34-23.71,13.79-35,1-1.83,2.14-3.91,4.16-4.78m49.08,32.16c2.78-1,5.39,1,7.65,2.37,9.9,6.42,18.54,15.64,22,27.13,3.44,10.7,2,22.2-.5,32.93A91.92,91.92,0,0,1,871.09,941c-10.48,11.32-25.22,17.65-40,21.07-2.7.43-6.39,1.62-8.29-1.09-.18-3.52,3.16-5.72,5.59-7.68,13.43-9.65,26.39-20.23,36.9-33.09,2.64-2.65,4.75-6.47,2.85-10.18-4.69-10-13.68-17.09-21.86-24.21a8.34,8.34,0,0,1-2-10.52c4.83-9.66,9.5-19.4,13.85-29.28.84-1.64,1.43-3.76,3.26-4.56m-591,58c7.41-2.64,15.95.47,20.91,6.32,4.21,5.45,5.29,12.61,5.69,19.3.09,15.3-5.74,29.88-12.56,43.32-3.87,7.94-11.85,13.46-20.48,15-4.3.78-9.4,1.87-13.16-1.06-4.13-3.44-5.47-9.12-5.47-14.27,0-20.41,6.67-40.15,15.45-58.35,2.09-4.23,5-8.62,9.62-10.25m-7.77,37.92c-2.73.36-3.92,3.17-4.88,5.4-2,5.07-.88,10.68,1.18,15.54,9.43,1.86,18.94-4.38,22.32-13.11-4-6-11.48-9.55-18.62-7.83Z"/></g></g></svg>