<svg width="20" height="20" viewBox="0 0 20 20" fill="none" xmlns="http://www.w3.org/2000/svg">
<g id="Bold / Arrows Action / Login 2">
<g id="Vector">
<path fill-rule="evenodd" clip-rule="evenodd" d="M1.35416 9.99998C1.35416 10.3452 1.63398 10.625 1.97916 10.625L11.123 10.625L9.48908 12.0254C9.227 12.2501 9.19665 12.6446 9.42129 12.9067C9.64593 13.1688 10.0405 13.1992 10.3026 12.9745L13.2192 10.4745C13.3578 10.3558 13.4375 10.1824 13.4375 9.99998C13.4375 9.81753 13.3578 9.64418 13.2192 9.52544L10.3026 7.02544C10.0405 6.80081 9.64593 6.83116 9.42129 7.09323C9.19665 7.35531 9.227 7.74988 9.48908 7.97452L11.123 9.37498L1.97916 9.37498C1.63398 9.37498 1.35416 9.6548 1.35416 9.99998Z" fill="white"/>
<path d="M7.81249 8.12501L8.12772 8.12501C7.91227 7.51369 8.02007 6.80728 8.47222 6.27978C9.14613 5.49354 10.3298 5.40249 11.1161 6.07641L14.0327 8.57641C14.4483 8.93262 14.6875 9.45266 14.6875 10C14.6875 10.5474 14.4483 11.0674 14.0327 11.4236L11.1161 13.9236C10.3298 14.5975 9.14613 14.5065 8.47222 13.7202C8.02007 13.1927 7.91227 12.4863 8.12772 11.875L7.81249 11.875L7.81249 13.3333C7.81249 15.6903 7.81249 16.8688 8.54472 17.6011C9.27696 18.3333 10.4555 18.3333 12.8125 18.3333L13.6458 18.3333C16.0029 18.3333 17.1814 18.3333 17.9136 17.6011C18.6458 16.8688 18.6458 15.6903 18.6458 13.3333L18.6458 6.66665C18.6458 4.30963 18.6458 3.13111 17.9136 2.39888C17.1814 1.66665 16.0028 1.66665 13.6458 1.66665L12.8125 1.66665C10.4555 1.66665 9.27695 1.66665 8.54472 2.39888C7.81249 3.13111 7.81249 4.30962 7.81249 6.66665L7.81249 8.12501Z" fill="white"/>
</g>
</g>
</svg>
