<svg width="20" height="20" viewBox="0 0 20 20" fill="none" xmlns="http://www.w3.org/2000/svg">
<g id="Social Icons" clip-path="url(#clip0_43_93)">
<path id="Vector" fill-rule="evenodd" clip-rule="evenodd" d="M10.0078 0C4.6949 0 0.399902 4.32666 0.399902 9.67933C0.399902 13.958 3.15186 17.5798 6.96955 18.8617C7.44686 18.9581 7.62169 18.6534 7.62169 18.3972C7.62169 18.1728 7.60596 17.4036 7.60596 16.6022C4.93326 17.1792 4.3767 15.4483 4.3767 15.4483C3.94718 14.3266 3.31076 14.0382 3.31076 14.0382C2.43599 13.4453 3.37448 13.4453 3.37448 13.4453C4.34484 13.5094 4.854 14.4389 4.854 14.4389C5.71285 15.9131 7.09679 15.4965 7.65355 15.2401C7.733 14.6151 7.98769 14.1824 8.2581 13.9421C6.12644 13.7177 3.88365 12.8844 3.88365 9.16643C3.88365 8.10876 4.26519 7.24342 4.86974 6.57043C4.77435 6.3301 4.44022 5.33635 4.96532 4.00629C4.96532 4.00629 5.77657 3.74984 7.60576 4.99985C8.3889 4.78798 9.19655 4.68019 10.0078 4.67929C10.8191 4.67929 11.6461 4.79158 12.4097 4.99985C14.2391 3.74984 15.0504 4.00629 15.0504 4.00629C15.5755 5.33635 15.2411 6.3301 15.1458 6.57043C15.7662 7.24342 16.132 8.10876 16.132 9.16643C16.132 12.8844 13.8893 13.7016 11.7417 13.9421C12.0917 14.2465 12.3938 14.8233 12.3938 15.7369C12.3938 17.0349 12.3781 18.0766 12.3781 18.397C12.3781 18.6534 12.5531 18.9581 13.0302 18.8619C16.8479 17.5796 19.5999 13.958 19.5999 9.67933C19.6156 4.32666 15.3049 0 10.0078 0Z" fill="#0D1117"/>
</g>
<defs>
<clipPath id="clip0_43_93">
<rect width="19.2" height="19.2" fill="white" transform="translate(0.399902)"/>
</clipPath>
</defs>
</svg>
