<svg width="24" height="25" viewBox="0 0 24 25" fill="none" xmlns="http://www.w3.org/2000/svg">
<g id="Bold / Network, IT, Programming / Translation 2 ">
<g id="Vector">
<path fill-rule="evenodd" clip-rule="evenodd" d="M12 8.53471C9.3028 8.53471 7.11628 10.6864 7.11628 13.3406C7.11628 14.6679 7.66214 15.8684 8.54669 16.7388C8.81915 17.0069 8.81915 17.4417 8.54669 17.7098C8.27423 17.9779 7.83249 17.9779 7.56003 17.7098C6.4245 16.5923 5.72093 15.0467 5.72093 13.3406C5.72093 9.92803 8.53217 7.16161 12 7.16161C15.4678 7.16161 18.2791 9.92803 18.2791 13.3406C18.2791 15.0467 17.5755 16.5923 16.44 17.7098C16.1675 17.9779 15.7258 17.9779 15.4533 17.7098C15.1809 17.4417 15.1809 17.0069 15.4533 16.7388C16.3379 15.8684 16.8837 14.6679 16.8837 13.3406C16.8837 10.6864 14.6972 8.53471 12 8.53471Z" fill="white"/>
<path fill-rule="evenodd" clip-rule="evenodd" d="M12 4.8731C7.24778 4.8731 3.39535 8.66412 3.39535 13.3406C3.39535 15.679 4.35769 17.7949 5.91559 19.328C6.18805 19.5961 6.18805 20.0308 5.91559 20.2989C5.64313 20.567 5.20139 20.567 4.92893 20.2989C3.12005 18.5189 2 16.0578 2 13.3406C2 7.90578 6.47715 3.5 12 3.5C17.5228 3.5 22 7.90578 22 13.3406C22 16.0578 20.8799 18.5189 19.0711 20.2989C18.7986 20.567 18.3569 20.567 18.0844 20.2989C17.8119 20.0308 17.8119 19.5961 18.0844 19.328C19.6423 17.7949 20.6047 15.679 20.6047 13.3406C20.6047 8.66412 16.7522 4.8731 12 4.8731Z" fill="white"/>
<path d="M10.3099 17.8441C11.0774 16.9683 11.4612 16.5304 11.935 16.502C11.9783 16.4993 12.0217 16.4993 12.065 16.502C12.5389 16.5304 12.9226 16.9683 13.6901 17.8441C15.3601 19.7497 16.1951 20.7025 15.9613 21.5245C15.9412 21.5952 15.9163 21.6639 15.8867 21.7301C15.5426 22.5 14.3617 22.5 12 22.5C9.63827 22.5 8.45741 22.5 8.11329 21.7301C8.08371 21.6639 8.05875 21.5952 8.03866 21.5245C7.80489 20.7025 8.63989 19.7497 10.3099 17.8441Z" fill="white"/>
<path d="M14.5 13C14.5 14.3807 13.3807 15.5 12 15.5C10.6193 15.5 9.5 14.3807 9.5 13C9.5 11.6193 10.6193 10.5 12 10.5C13.3807 10.5 14.5 11.6193 14.5 13Z" fill="white"/>
</g>
</g>
</svg>
