<svg width="24" height="25" viewBox="0 0 24 25" fill="none" xmlns="http://www.w3.org/2000/svg">
<g id="Bold / Network, IT, Programming / Wi-Fi Router ">
<g id="Vector">
<path d="M12.0838 4C10.1049 4 8.40696 5.21031 7.69312 6.93399C7.53464 7.31668 7.09592 7.49844 6.71323 7.33995C6.33053 7.18146 6.14878 6.74275 6.30727 6.36005C7.24515 4.0954 9.47729 2.5 12.0838 2.5C14.6904 2.5 16.9225 4.0954 17.8604 6.36005C18.0189 6.74275 17.8371 7.18146 17.4544 7.33995C17.0717 7.49844 16.633 7.31668 16.4745 6.93399C15.7607 5.21032 14.0627 4 12.0838 4Z" fill="white"/>
<path d="M12.0846 6.5C11.0622 6.5 10.1973 7.18244 9.92427 8.1182C9.80824 8.51583 9.39183 8.74411 8.9942 8.62808C8.59657 8.51205 8.36829 8.09564 8.48432 7.69801C8.93906 6.13969 10.3777 5 12.0846 5C13.7914 5 15.2301 6.13969 15.6848 7.69801C15.8008 8.09564 15.5725 8.51205 15.1749 8.62808C14.7773 8.74411 14.3609 8.51583 14.2448 8.1182C13.9718 7.18244 13.1069 6.5 12.0846 6.5Z" fill="white"/>
<path d="M13.084 8.25C13.084 8.80228 12.6363 9.25 12.084 9.25C11.5317 9.25 11.084 8.80228 11.084 8.25C11.084 7.69772 11.5317 7.25 12.084 7.25C12.6363 7.25 13.084 7.69772 13.084 8.25Z" fill="white"/>
<path fill-rule="evenodd" clip-rule="evenodd" d="M3.65131 4.87802C3.4458 4.51839 2.98766 4.39344 2.62802 4.59895C2.26839 4.80445 2.14344 5.26259 2.34895 5.62223L6.13624 12.25H6C4.11438 12.25 3.17157 12.25 2.58579 12.8358C2 13.4216 2 14.3644 2 16.25C2 18.1356 2 19.0784 2.58579 19.6642C3.17157 20.25 4.11438 20.25 6 20.25H18C19.8856 20.25 20.8284 20.25 21.4142 19.6642C22 19.0784 22 18.1356 22 16.25C22 14.3644 22 13.4216 21.4142 12.8358C20.8284 12.25 19.8856 12.25 18 12.25H17.8638L21.6511 5.62223C21.8566 5.26259 21.7316 4.80445 21.372 4.59895C21.0123 4.39344 20.5542 4.51839 20.3487 4.87802L16.3487 11.878L16.1287 12.25H7.88128L7.65131 11.878L3.65131 4.87802ZM6 17.25C6.55228 17.25 7 16.8023 7 16.25C7 15.6977 6.55228 15.25 6 15.25C5.44772 15.25 5 15.6977 5 16.25C5 16.8023 5.44772 17.25 6 17.25ZM10 16.25C10 16.8023 9.55228 17.25 9 17.25C8.44772 17.25 8 16.8023 8 16.25C8 15.6977 8.44772 15.25 9 15.25C9.55228 15.25 10 15.6977 10 16.25ZM14 15.5C13.5858 15.5 13.25 15.8358 13.25 16.25C13.25 16.6642 13.5858 17 14 17H18C18.4142 17 18.75 16.6642 18.75 16.25C18.75 15.8358 18.4142 15.5 18 15.5H14Z" fill="white"/>
</g>
</g>
</svg>
